<svg width="24" height="25" viewBox="0 0 24 25" fill="none" xmlns="http://www.w3.org/2000/svg">
<path d="M20.3479 8.06384L9.7479 18.6638C9.65402 18.7585 9.52622 18.8117 9.3929 18.8117C9.25958 18.8117 9.13178 18.7585 9.0379 18.6638L3.6479 13.2738C3.55324 13.18 3.5 13.0522 3.5 12.9188C3.5 12.7855 3.55324 12.6577 3.6479 12.5638L4.3479 11.8638C4.44178 11.7692 4.56958 11.7159 4.7029 11.7159C4.83622 11.7159 4.96402 11.7692 5.0579 11.8638L9.3879 16.1938L18.9379 6.64384C19.1357 6.45205 19.4501 6.45205 19.6479 6.64384L20.3479 7.35384C20.4426 7.44772 20.4958 7.57552 20.4958 7.70884C20.4958 7.84216 20.4426 7.96995 20.3479 8.06384Z" fill="white"/>
</svg>
