<svg width="32" height="32" viewBox="0 0 32 32" fill="none" xmlns="http://www.w3.org/2000/svg">
<path d="M26.666 5.33334H5.33268C3.86202 5.33334 2.66602 6.52934 2.66602 8.00001V24C2.66602 25.4707 3.86202 26.6667 5.33268 26.6667H26.666C28.1367 26.6667 29.3327 25.4707 29.3327 24V8.00001C29.3327 6.52934 28.1367 5.33334 26.666 5.33334ZM26.666 8.00001V8.68134L15.9993 16.9787L5.33268 8.68268V8.00001H26.666ZM5.33268 24V12.0587L15.1807 19.7187C15.4142 19.9021 15.7025 20.0018 15.9993 20.0018C16.2962 20.0018 16.5845 19.9021 16.818 19.7187L26.666 12.0587L26.6687 24H5.33268Z" fill="#FA821F"/>
</svg>
