<svg width="36" height="36" viewBox="0 0 36 36" fill="none" xmlns="http://www.w3.org/2000/svg">
<path fill-rule="evenodd" clip-rule="evenodd" d="M0.669922 7.5L5.00005 0L9.33018 7.5H6.50005V13C6.50005 13.8284 5.82848 14.5 5.00005 14.5C4.17162 14.5 3.50005 13.8284 3.50005 13L3.50005 7.5H0.669922ZM19.3301 1C17.8113 1 16.5801 2.23122 16.5801 3.75V16.25H2.00005C1.44776 16.25 1.00005 16.6977 1.00005 17.25V34.25C1.00005 34.8023 1.44178 35.25 1.99406 35.25H19.0033C19.5556 35.25 20 34.8023 20 34.25V19.5H20.0031H20.0213H20.0396H20.0579H20.0763H20.0948H20.1134H20.132H20.1508H20.1696H20.1884H20.2074H20.2264H20.2455H20.2647H20.2839H20.3033H20.3227H20.3421H20.3617H20.3813H20.401H20.4207H20.4406H20.4605H20.4804H20.5005H20.5206H20.5408H20.5611H20.5814H20.6018H20.6223H20.6428H20.6634H20.6841H20.7048H20.7256H20.7465H20.7675H20.7885H20.8096H20.8307H20.8519H20.8732H20.8945H20.916H20.9374H20.959H20.9806H21.0023H21.024H21.0458H21.0677H21.0896H21.1116H21.1336H21.1557H21.1779H21.2002H21.2225H21.2448H21.2672H21.2897H21.3123H21.3349H21.3575H21.3803H21.403H21.4259H21.4488H21.4718H21.4948H21.5178H21.541H21.5642H21.5874H21.6107H21.6341H21.6575H21.681H21.7045H21.7281H21.7517H21.7754H21.7992H21.823H21.8468H21.8708H21.8947H21.9187H21.9428H21.9669H21.9911H22.0153H22.0396H22.064H22.0883H22.1128H22.1373H22.1618H22.1864H22.211H22.2357H22.2604H22.2852H22.3101H22.3349H22.3599H22.3848H22.4099H22.4349H22.4601H22.4852H22.5104H22.5357H22.561H22.5863H22.6117H22.6372H22.6627H22.6882H22.7138H22.7394H22.765H22.7907H22.8165H22.8423H22.8681H22.894H22.9199H22.9459H22.9719H22.9979H23.024H23.0501H23.0763H23.1025H23.1287H23.155H23.1813H23.2077H23.2341H23.2605H23.287H23.3135H23.3401H23.3666H23.3933H23.4199H23.4466H23.4734H23.5001H23.5269H23.5538H23.5807H23.6076H23.6345H23.6615H23.6885H23.7155H23.7426H23.7697H23.7969H23.8241H23.8513H23.8785H23.9058H23.9331H23.9604H23.9878H24.0152H24.0426H24.0701H24.0975H24.1251H24.1526H24.1802H24.2078H24.2354H24.2631H24.2907H24.3185H24.3462H24.374H24.4018H24.4296H24.4574H24.4853H24.5132H24.5411H24.569H24.597H24.625H24.653H24.6811H24.7091H24.7372H24.7653H24.7935H24.8216H24.8498H24.878H24.9062H24.9345H24.9627H24.991H25.0193H25.0476H25.076H25.1044H25.1327H25.1611H25.1896H25.218H25.2465H25.2749H25.3034H25.3319H25.3605H25.389H25.4176H25.4461H25.4747H25.5033H25.532H25.5606H25.5893H25.6179H25.6466H25.6753H25.704H25.7327H25.7615H25.7902H25.819H25.8477H25.8765H25.9053H25.9341H25.9629H25.9918H26.0206H26.0495H26.0783H26.1072H26.1361H26.165H26.1939H26.2228H26.2517H26.2806H26.3095H26.3385H26.3674H26.3964H26.4253H26.4543H26.4832H26.5122H26.5412H26.5702H26.5992H26.6282H26.6572H26.6862H26.7152H26.7442H26.7732H26.8022H26.8312H26.8603H26.8893H26.9183H26.9473H26.9764H27.0054H27.0344H27.0634H27.0925H27.1215H27.1505H27.1796H27.2086H27.2376H27.2666H27.2957H27.3247H27.3537H27.3827H27.4117H27.4407H27.4698H27.4988H27.5278H27.5567H27.5857H27.6147H27.6437H27.6727H27.7016H27.7306H27.7596H27.7885H27.8174H27.8464H27.8753H27.9042H27.9331H27.962H27.9909H28.0198H28.0487H28.0776H28.1064H28.1353H28.1641H28.1929H28.2217H28.2505H28.2793H28.3081H28.3369H28.3656H28.3944H28.4231H28.4518H28.4805H28.5092H28.5379H28.5666H28.5952H28.6239H28.6525H28.6811H28.7097H28.7382H28.7668H28.7953H28.8239H28.8524H28.8808H28.9093H28.9378H28.9662H28.9946H29.023H29.0514H29.0798H29.1081H29.1364H29.1647H29.193H29.2212H29.2495H29.2777H29.3059H29.3341H29.3622H29.3903H29.4184H29.4465H29.4746H29.5026H29.5306H29.5586H29.5866H29.6145H29.6424H29.6703H29.6982H29.726H29.7538H29.7816H29.8094H29.8371H29.8648H29.8925H29.9201H29.9478H29.9754H30.0029H30.0305H30.058H30.0854H30.1129H30.1403H30.1677H30.1951H30.2224H30.2497H30.2769H30.3042H30.3314H30.3585H30.3857H30.4128H30.4398H30.4669H30.4939H30.5209H30.5478H30.5747H30.6016H30.6284H30.6552H30.6819H30.7087H30.7353H30.762H30.7886H30.8152H30.8417H30.8682H30.8947H30.9211H30.9475H30.9739H31.0002H31.0264H31.0527H31.0789H31.105H31.1311H31.1572H31.1832H31.2092H31.2352H31.2611H31.2869H31.3128H31.3385H31.3643H31.39H31.4156H31.4412H31.4668H31.4923H31.5178H31.5432H31.5686H31.5939H31.6192H31.6444H31.6696H31.6948H31.7199H31.745H31.77H31.7949H31.8199H31.8447H31.8695H31.8943H31.919H31.9437H31.9683H31.9929H32.0174H32.0419H32.0663H32.0907H32.115H32.1393H32.1635H32.1876H32.2118H32.2358H32.2598H32.2838H32.3077H32.3315C33.8534 19.5 35.0801 18.2656 35.0801 16.75V3.75C35.0801 2.23122 33.8489 1 32.3301 1H19.3301ZM20.0801 16V4.5H31.5801V16H31.5686H31.5432H31.5178H31.4923H31.4668H31.4412H31.4156H31.39H31.3643H31.3385H31.3128H31.2869H31.2611H31.2352H31.2092H31.1832H31.1572H31.1311H31.105H31.0789H31.0527H31.0264H31.0002H30.9739H30.9475H30.9211H30.8947H30.8682H30.8417H30.8152H30.7886H30.762H30.7353H30.7087H30.6819H30.6552H30.6284H30.6016H30.5747H30.5478H30.5209H30.4939H30.4669H30.4398H30.4128H30.3857H30.3585H30.3314H30.3042H30.2769H30.2497H30.2224H30.1951H30.1677H30.1403H30.1129H30.0854H30.058H30.0305H30.0029H29.9754H29.9478H29.9201H29.8925H29.8648H29.8371H29.8094H29.7816H29.7538H29.726H29.6982H29.6703H29.6424H29.6145H29.5866H29.5586H29.5306H29.5026H29.4746H29.4465H29.4184H29.3903H29.3622H29.3341H29.3059H29.2777H29.2495H29.2212H29.193H29.1647H29.1364H29.1081H29.0798H29.0514H29.023H28.9946H28.9662H28.9378H28.9093H28.8808H28.8524H28.8239H28.7953H28.7668H28.7382H28.7097H28.6811H28.6525H28.6239H28.5952H28.5666H28.5379H28.5092H28.4805H28.4518H28.4231H28.3944H28.3656H28.3369H28.3081H28.2793H28.2505H28.2217H28.1929H28.1641H28.1353H28.1064H28.0776H28.0487H28.0198H27.9909H27.962H27.9331H27.9042H27.8753H27.8464H27.8174H27.7885H27.7596H27.7306H27.7016H27.6727H27.6437H27.6147H27.5857H27.5567H27.5278H27.4988H27.4698H27.4407H27.4117H27.3827H27.3537H27.3247H27.2957H27.2666H27.2376H27.2086H27.1796H27.1505H27.1215H27.0925H27.0634H27.0344H27.0054H26.9764H26.9473H26.9183H26.8893H26.8603H26.8312H26.8022H26.7732H26.7442H26.7152H26.6862H26.6572H26.6282H26.5992H26.5702H26.5412H26.5122H26.4832H26.4543H26.4253H26.3964H26.3674H26.3385H26.3095H26.2806H26.2517H26.2228H26.1939H26.165H26.1361H26.1072H26.0783H26.0495H26.0206H25.9918H25.9629H25.9341H25.9053H25.8765H25.8477H25.819H25.7902H25.7615H25.7327H25.704H25.6753H25.6466H25.6179H25.5893H25.5606H25.532H25.5033H25.4747H25.4461H25.4176H25.389H25.3605H25.3319H25.3034H25.2749H25.2465H25.218H25.1896H25.1611H25.1327H25.1044H25.076H25.0476H25.0193H24.991H24.9627H24.9345H24.9062H24.878H24.8498H24.8216H24.7935H24.7653H24.7372H24.7091H24.6811H24.653H24.625H24.597H24.569H24.5411H24.5132H24.4853H24.4574H24.4296H24.4018H24.374H24.3462H24.3185H24.2907H24.2631H24.2354H24.2078H24.1802H24.1526H24.1251H24.0975H24.0701H24.0426H24.0152H23.9878H23.9604H23.9331H23.9058H23.8785H23.8513H23.8241H23.7969H23.7697H23.7426H23.7155H23.6885H23.6615H23.6345H23.6076H23.5807H23.5538H23.5269H23.5001H23.4734H23.4466H23.4199H23.3933H23.3666H23.3401H23.3135H23.287H23.2605H23.2341H23.2077H23.1813H23.155H23.1287H23.1025H23.0763H23.0501H23.024H22.9979H22.9719H22.9459H22.9199H22.894H22.8681H22.8423H22.8165H22.7907H22.765H22.7394H22.7138H22.6882H22.6627H22.6372H22.6117H22.5863H22.561H22.5357H22.5104H22.4852H22.4601H22.4349H22.4099H22.3848H22.3599H22.3349H22.3101H22.2852H22.2604H22.2357H22.211H22.1864H22.1618H22.1373H22.1128H22.0883H22.064H22.0396H22.0153H21.9911H21.9669H21.9428H21.9187H21.8947H21.8708H21.8468H21.823H21.7992H21.7754H21.7517H21.7281H21.7045H21.681H21.6575H21.6341H21.6107H21.5874H21.5642H21.541H21.5178H21.4948H21.4718H21.4488H21.4259H21.403H21.3803H21.3575H21.3349H21.3123H21.2897H21.2672H21.2448H21.2225H21.2002H21.1779H21.1557H21.1336H21.1116H21.0896H21.0677H21.0458H21.024H21.0023H20.9806H20.959H20.9374H20.916H20.8945H20.8732H20.8519H20.8307H20.8096H20.7885H20.7675H20.7465H20.7256H20.7048H20.6841H20.6634H20.6428H20.6223H20.6018H20.5814H20.5611H20.5408H20.5206H20.5005H20.4804H20.4605H20.4406H20.4207H20.401H20.3813H20.3617H20.3421H20.3227H20.3033H20.2839H20.2647H20.2455H20.2264H20.2074H20.1884H20.1696H20.1508H20.132H20.1134H20.0948H20.0801Z" fill="#FA821F"/>
</svg>
