<svg width="49" height="34" viewBox="0 0 49 34" fill="none" xmlns="http://www.w3.org/2000/svg">
<path d="M47.2018 0H16.8578C15.8632 0 15.0596 0.804967 15.0596 1.80132V15.0861H1.79817C0.803555 15.0861 0 15.8911 0 16.8874V32.1987C0 33.195 0.803555 34 1.79817 34H32.1422C33.1368 34 33.9404 33.195 33.9404 32.1987V18.9139H47.2018C48.1964 18.9139 49 18.1089 49 17.1126V1.80132C49 0.804967 48.1964 0 47.2018 0ZM30.1193 30.1722H18.8807V18.9139H30.1193V30.1722ZM45.1789 15.0861H33.9404V3.82781H45.1789V15.0861Z" fill="#FA821F"/>
</svg>
