<svg width="50" height="48" viewBox="0 0 50 48" fill="none" xmlns="http://www.w3.org/2000/svg">
<path fill-rule="evenodd" clip-rule="evenodd" d="M16.5 7.11328L21.5 10L16.5 12.8868V11.5H12V21H11H10H9V11C9 9.61932 10.1193 8.50003 11.5 8.50003H16.5V7.11328ZM26.5 7.25003C24.9812 7.25003 23.75 8.48125 23.75 10V23H9C8.44772 23 8 23.4477 8 24V40C8 40.5523 8.44176 41 8.99404 41H25.0024C25.5546 41 26 40.5523 26 40V25.7051C26.1614 25.7346 26.3279 25.75 26.4981 25.75H26.5128H26.5276H26.5426H26.5576H26.5727H26.5879H26.6031H26.6185H26.634H26.6495H26.6651H26.6808H26.6966H26.7125H26.7285H26.7446H26.7607H26.7769H26.7933H26.8097H26.8261H26.8427H26.8593H26.8761H26.8929H26.9098H26.9268H26.9438H26.961H26.9782H26.9955H27.0129H27.0304H27.0479H27.0656H27.0833H27.1011H27.1189H27.1369H27.1549H27.173H27.1912H27.2094H27.2278H27.2462H27.2647H27.2833H27.3019H27.3206H27.3394H27.3583H27.3773H27.3963H27.4154H27.4346H27.4538H27.4731H27.4925H27.512H27.5315H27.5512H27.5708H27.5906H27.6104H27.6303H27.6503H27.6704H27.6905H27.7107H27.7309H27.7513H27.7717H27.7921H27.8127H27.8333H27.854H27.8747H27.8955H27.9164H27.9373H27.9583H27.9794H28.0006H28.0218H28.0431H28.0644H28.0858H28.1073H28.1289H28.1505H28.1721H28.1939H28.2157H28.2375H28.2595H28.2814H28.3035H28.3256H28.3478H28.37H28.3923H28.4147H28.4371H28.4596H28.4821H28.5047H28.5274H28.5501H28.5729H28.5958H28.6187H28.6416H28.6646H28.6877H28.7109H28.734H28.7573H28.7806H28.804H28.8274H28.8509H28.8744H28.898H28.9216H28.9453H28.9691H28.9929H29.0167H29.0406H29.0646H29.0886H29.1127H29.1368H29.161H29.1852H29.2095H29.2338H29.2582H29.2827H29.3071H29.3317H29.3563H29.3809H29.4056H29.4303H29.4551H29.4799H29.5048H29.5297H29.5547H29.5797H29.6048H29.6299H29.6551H29.6803H29.7056H29.7309H29.7562H29.7816H29.8071H29.8325H29.8581H29.8836H29.9093H29.9349H29.9606H29.9864H30.0122H30.038H30.0639H30.0898H30.1157H30.1417H30.1678H30.1939H30.22H30.2462H30.2724H30.2986H30.3249H30.3512H30.3776H30.404H30.4304H30.4569H30.4834H30.5099H30.5365H30.5631H30.5898H30.6165H30.6432H30.67H30.6968H30.7237H30.7505H30.7774H30.8044H30.8314H30.8584H30.8854H30.9125H30.9396H30.9667H30.9939H31.0211H31.0484H31.0756H31.103H31.1303H31.1576H31.185H31.2125H31.2399H31.2674H31.2949H31.3225H31.35H31.3776H31.4053H31.4329H31.4606H31.4883H31.5161H31.5438H31.5716H31.5994H31.6273H31.6552H31.6831H31.711H31.7389H31.7669H31.7949H31.8229H31.8509H31.879H31.9071H31.9352H31.9633H31.9915H32.0197H32.0479H32.0761H32.1043H32.1326H32.1609H32.1892H32.2175H32.2459H32.2742H32.3026H32.331H32.3594H32.3879H32.4163H32.4448H32.4733H32.5018H32.5303H32.5589H32.5874H32.616H32.6446H32.6732H32.7018H32.7305H32.7591H32.7878H32.8165H32.8452H32.8739H32.9026H32.9313H32.9601H32.9888H33.0176H33.0464H33.0752H33.104H33.1328H33.1616H33.1905H33.2193H33.2482H33.2771H33.3059H33.3348H33.3637H33.3926H33.4215H33.4505H33.4794H33.5083H33.5373H33.5662H33.5952H33.6241H33.6531H33.6821H33.7111H33.7401H33.769H33.798H33.827H33.856H33.8851H33.9141H33.9431H33.9721H34.0011H34.0301H34.0592H34.0882H34.1172H34.1462H34.1753H34.2043H34.2333H34.2624H34.2914H34.3204H34.3494H34.3785H34.4075H34.4365H34.4655H34.4946H34.5236H34.5526H34.5816H34.6106H34.6396H34.6686H34.6976H34.7266H34.7556H34.7846H34.8136H34.8425H34.8715H34.9005H34.9294H34.9584H34.9873H35.0163H35.0452H35.0741H35.103H35.1319H35.1608H35.1897H35.2186H35.2474H35.2763H35.3051H35.334H35.3628H35.3916H35.4204H35.4492H35.478H35.5068H35.5355H35.5643H35.593H35.6217H35.6504H35.6791H35.7078H35.7364H35.7651H35.7937H35.8223H35.8509H35.8795H35.9081H35.9367H35.9652H35.9937H36.0222H36.0507H36.0792H36.1076H36.1361H36.1645H36.1929H36.2213H36.2496H36.278H36.3063H36.3346H36.3629H36.3911H36.4194H36.4476H36.4758H36.5039H36.5321H36.5602H36.5883H36.6164H36.6445H36.6725H36.7005H36.7285H36.7565H36.7844H36.8123H36.8402H36.8681H36.8959H36.9237H36.9515H36.9793H37.007H37.0347H37.0624H37.09H37.1176H37.1452H37.1728H37.2003H37.2278H37.2553H37.2828H37.3102H37.3376H37.3649H37.3923H37.4195H37.4468H37.474H37.5012H37.5284H37.5555H37.5826H37.6097H37.6368H37.6638H37.6907H37.7177H37.7446H37.7714H37.7983H37.8251H37.8518H37.8785H37.9052H37.9319H37.9585H37.9851H38.0116H38.0381H38.0646H38.091H38.1174H38.1437H38.17H38.1963H38.2225H38.2487H38.2749H38.301H38.3271H38.3531H38.3791H38.405H38.4309H38.4568H38.4826H38.5084H38.5341H38.5598H38.5855H38.6111H38.6367H38.6622H38.6876H38.7131H38.7384H38.7638H38.7891H38.8143H38.8395H38.8647H38.8898H38.9148H38.9398H38.9648H38.9897H39.0146H39.0394H39.0642H39.0889H39.1136H39.1382H39.1628H39.1873H39.2118H39.2362H39.2606H39.2849H39.3091H39.3334H39.3575H39.3816H39.4057H39.4297H39.4536H39.4775H39.5014C41.0233 25.75 42.25 24.5157 42.25 23V10C42.25 8.48125 41.0188 7.25003 39.5 7.25003H26.5ZM27.25 22.25V10.75H38.75V22.25H38.7384H38.7131H38.6876H38.6622H38.6367H38.6111H38.5855H38.5598H38.5341H38.5084H38.4826H38.4568H38.4309H38.405H38.3791H38.3531H38.3271H38.301H38.2749H38.2487H38.2225H38.1963H38.17H38.1437H38.1174H38.091H38.0646H38.0381H38.0116H37.9851H37.9585H37.9319H37.9052H37.8785H37.8518H37.8251H37.7983H37.7714H37.7446H37.7177H37.6907H37.6638H37.6368H37.6097H37.5826H37.5555H37.5284H37.5012H37.474H37.4468H37.4195H37.3923H37.3649H37.3376H37.3102H37.2828H37.2553H37.2278H37.2003H37.1728H37.1452H37.1176H37.09H37.0624H37.0347H37.007H36.9793H36.9515H36.9237H36.8959H36.8681H36.8402H36.8123H36.7844H36.7565H36.7285H36.7005H36.6725H36.6445H36.6164H36.5883H36.5602H36.5321H36.5039H36.4758H36.4476H36.4194H36.3911H36.3629H36.3346H36.3063H36.278H36.2496H36.2213H36.1929H36.1645H36.1361H36.1076H36.0792H36.0507H36.0222H35.9937H35.9652H35.9367H35.9081H35.8795H35.8509H35.8223H35.7937H35.7651H35.7364H35.7078H35.6791H35.6504H35.6217H35.593H35.5643H35.5355H35.5068H35.478H35.4492H35.4204H35.3916H35.3628H35.334H35.3051H35.2763H35.2474H35.2186H35.1897H35.1608H35.1319H35.103H35.0741H35.0452H35.0163H34.9873H34.9584H34.9294H34.9005H34.8715H34.8425H34.8136H34.7846H34.7556H34.7266H34.6976H34.6686H34.6396H34.6106H34.5816H34.5526H34.5236H34.4946H34.4655H34.4365H34.4075H34.3785H34.3494H34.3204H34.2914H34.2624H34.2333H34.2043H34.1753H34.1462H34.1172H34.0882H34.0592H34.0301H34.0011H33.9721H33.9431H33.9141H33.8851H33.856H33.827H33.798H33.769H33.7401H33.7111H33.6821H33.6531H33.6241H33.5952H33.5662H33.5373H33.5083H33.4794H33.4505H33.4215H33.3926H33.3637H33.3348H33.3059H33.2771H33.2482H33.2193H33.1905H33.1616H33.1328H33.104H33.0752H33.0464H33.0176H32.9888H32.9601H32.9313H32.9026H32.8739H32.8452H32.8165H32.7878H32.7591H32.7305H32.7018H32.6732H32.6446H32.616H32.5874H32.5589H32.5303H32.5018H32.4733H32.4448H32.4163H32.3879H32.3594H32.331H32.3026H32.2742H32.2459H32.2175H32.1892H32.1609H32.1326H32.1043H32.0761H32.0479H32.0197H31.9915H31.9633H31.9352H31.9071H31.879H31.8509H31.8229H31.7949H31.7669H31.7389H31.711H31.6831H31.6552H31.6273H31.5994H31.5716H31.5438H31.5161H31.4883H31.4606H31.4329H31.4053H31.3776H31.35H31.3225H31.2949H31.2674H31.2399H31.2125H31.185H31.1576H31.1303H31.103H31.0756H31.0484H31.0211H30.9939H30.9667H30.9396H30.9125H30.8854H30.8584H30.8314H30.8044H30.7774H30.7505H30.7237H30.6968H30.67H30.6432H30.6165H30.5898H30.5631H30.5365H30.5099H30.4834H30.4569H30.4304H30.404H30.3776H30.3512H30.3249H30.2986H30.2724H30.2462H30.22H30.1939H30.1678H30.1417H30.1157H30.0898H30.0639H30.038H30.0122H29.9864H29.9606H29.9349H29.9093H29.8836H29.8581H29.8325H29.8071H29.7816H29.7562H29.7309H29.7056H29.6803H29.6551H29.6299H29.6048H29.5797H29.5547H29.5297H29.5048H29.4799H29.4551H29.4303H29.4056H29.3809H29.3563H29.3317H29.3071H29.2827H29.2582H29.2338H29.2095H29.1852H29.161H29.1368H29.1127H29.0886H29.0646H29.0406H29.0167H28.9929H28.9691H28.9453H28.9216H28.898H28.8744H28.8509H28.8274H28.804H28.7806H28.7573H28.734H28.7109H28.6877H28.6646H28.6416H28.6187H28.5958H28.5729H28.5501H28.5274H28.5047H28.4821H28.4596H28.4371H28.4147H28.3923H28.37H28.3478H28.3256H28.3035H28.2814H28.2595H28.2375H28.2157H28.1939H28.1721H28.1505H28.1289H28.1073H28.0858H28.0644H28.0431H28.0218H28.0006H27.9794H27.9583H27.9373H27.9164H27.8955H27.8747H27.854H27.8333H27.8127H27.7921H27.7717H27.7513H27.7309H27.7107H27.6905H27.6704H27.6503H27.6303H27.6104H27.5906H27.5708H27.5512H27.5315H27.512H27.4925H27.4731H27.4538H27.4346H27.4154H27.3963H27.3773H27.3583H27.3394H27.3206H27.3019H27.2833H27.2647H27.25ZM34.5 40.8868L29.5 38L34.5 35.1133V36.5H39V27H40H41H42V37C42 38.3807 40.8807 39.5 39.5 39.5H34.5V40.8868Z" fill="#FA821F"/>
</svg>
