<svg width="40" height="40" viewBox="0 0 40 40" fill="none" xmlns="http://www.w3.org/2000/svg">
<path fill-rule="evenodd" clip-rule="evenodd" d="M26.6667 5.4043H13.3333C8.73097 5.4043 5 9.13526 5 13.7376V27.071C5 31.6733 8.73097 35.4043 13.3333 35.4043H26.6667C31.269 35.4043 35 31.6733 35 27.071V13.7376C35 9.13526 31.269 5.4043 26.6667 5.4043ZM32.0833 27.071C32.0742 30.0586 29.6543 32.4785 26.6667 32.4876H13.3333C10.3456 32.4785 7.92582 30.0586 7.91667 27.071V13.7376C7.92582 10.7499 10.3456 8.33011 13.3333 8.32096H26.6667C29.6543 8.33011 32.0742 10.7499 32.0833 13.7376V27.071ZM27.9167 14.1543C28.8372 14.1543 29.5833 13.4081 29.5833 12.4876C29.5833 11.5672 28.8372 10.821 27.9167 10.821C26.9962 10.821 26.25 11.5672 26.25 12.4876C26.25 13.4081 26.9962 14.1543 27.9167 14.1543ZM20 12.9043C15.8579 12.9043 12.5 16.2622 12.5 20.4043C12.5 24.5465 15.8579 27.9043 20 27.9043C24.1422 27.9043 27.5 24.5465 27.5 20.4043C27.5045 18.4138 26.7157 16.5036 25.3082 15.0961C23.9007 13.6886 21.9905 12.8999 20 12.9043ZM15.4167 20.4043C15.4167 22.9356 17.4687 24.9876 20 24.9876C22.5313 24.9876 24.5833 22.9356 24.5833 20.4043C24.5833 17.873 22.5313 15.821 20 15.821C17.4687 15.821 15.4167 17.873 15.4167 20.4043Z" fill="white"/>
</svg>
