<svg width="32" height="32" viewBox="0 0 32 32" fill="none" xmlns="http://www.w3.org/2000/svg">
<path d="M23.6085 16.3906C23.4848 16.2667 23.3378 16.1683 23.1761 16.1013C23.0143 16.0342 22.8409 15.9997 22.6658 15.9997C22.4907 15.9997 22.3173 16.0342 22.1556 16.1013C21.9938 16.1683 21.8469 16.2667 21.7231 16.3906L19.5978 18.5159C18.6125 18.2226 16.7738 17.5559 15.6085 16.3906C14.4431 15.2253 13.7765 13.3866 13.4831 12.4013L15.6085 10.2759C15.7324 10.1522 15.8307 10.0053 15.8978 9.84351C15.9649 9.68176 15.9994 9.50837 15.9994 9.33326C15.9994 9.15814 15.9649 8.98475 15.8978 8.823C15.8307 8.66124 15.7324 8.51431 15.6085 8.39059L10.2751 3.05726C10.1514 2.93333 10.0045 2.83501 9.84273 2.76793C9.68098 2.70085 9.50759 2.66632 9.33248 2.66632C9.15736 2.66632 8.98397 2.70085 8.82222 2.76793C8.66047 2.83501 8.51353 2.93333 8.38981 3.05726L4.77381 6.67326C4.26714 7.17992 3.98181 7.87592 3.99248 8.58659C4.02314 10.4853 4.52581 17.0799 9.72314 22.2773C14.9205 27.4746 21.5151 27.9759 23.4151 28.0079H23.4525C24.1565 28.0079 24.8218 27.7306 25.3258 27.2266L28.9418 23.6106C29.0657 23.4869 29.1641 23.3399 29.2311 23.1782C29.2982 23.0164 29.3327 22.843 29.3327 22.6679C29.3327 22.4928 29.2982 22.3194 29.2311 22.1577C29.1641 21.9959 29.0657 21.849 28.9418 21.7253L23.6085 16.3906ZM23.4391 25.3399C21.7751 25.3119 16.0818 24.8653 11.6085 20.3906C7.12048 15.9026 6.68581 10.1893 6.65914 8.55859L9.33248 5.88526L12.7805 9.33326L11.0565 11.0573C10.8998 11.2139 10.7845 11.407 10.7212 11.6193C10.6579 11.8317 10.6485 12.0564 10.6938 12.2733C10.7258 12.4266 11.5085 16.0626 13.7218 18.2759C15.9351 20.4893 19.5711 21.2719 19.7245 21.3039C19.9412 21.3505 20.1662 21.3419 20.3787 21.2787C20.5912 21.2156 20.7844 21.1 20.9405 20.9426L22.6658 19.2186L26.1138 22.6666L23.4391 25.3399Z" fill="#FA821F"/>
</svg>
