<svg width="32" height="32" viewBox="0 0 32 32" fill="none" xmlns="http://www.w3.org/2000/svg">
<path d="M16.0007 18.6667C18.9421 18.6667 21.3341 16.2747 21.3341 13.3334C21.3341 10.392 18.9421 8.00002 16.0007 8.00002C13.0594 8.00002 10.6674 10.392 10.6674 13.3334C10.6674 16.2747 13.0594 18.6667 16.0007 18.6667ZM16.0007 10.6667C17.4714 10.6667 18.6674 11.8627 18.6674 13.3334C18.6674 14.804 17.4714 16 16.0007 16C14.5301 16 13.3341 14.804 13.3341 13.3334C13.3341 11.8627 14.5301 10.6667 16.0007 10.6667ZM15.2274 29.0854C15.4531 29.2465 15.7235 29.3331 16.0008 29.3331C16.2781 29.3331 16.5484 29.2465 16.7741 29.0854C17.1794 28.7987 26.7061 21.92 26.6674 13.3334C26.6674 7.45202 21.8821 2.66669 16.0008 2.66669C10.1194 2.66669 5.3341 7.45202 5.3341 13.3267C5.29544 21.92 14.8221 28.7987 15.2274 29.0854ZM16.0008 5.33335C20.4128 5.33335 24.0008 8.92135 24.0008 13.34C24.0288 19.2574 18.1501 24.5707 16.0008 26.3134C13.8528 24.5694 7.97277 19.2547 8.00077 13.3334C8.00077 8.92135 11.5888 5.33335 16.0008 5.33335Z" fill="#FA821F"/>
<path d="M16.0007 18.6667C18.9421 18.6667 21.3341 16.2747 21.3341 13.3334C21.3341 10.392 18.9421 8.00002 16.0007 8.00002C13.0594 8.00002 10.6674 10.392 10.6674 13.3334C10.6674 16.2747 13.0594 18.6667 16.0007 18.6667ZM16.0007 10.6667C17.4714 10.6667 18.6674 11.8627 18.6674 13.3334C18.6674 14.804 17.4714 16 16.0007 16C14.5301 16 13.3341 14.804 13.3341 13.3334C13.3341 11.8627 14.5301 10.6667 16.0007 10.6667ZM15.2274 29.0854C15.4531 29.2465 15.7235 29.3331 16.0008 29.3331C16.2781 29.3331 16.5484 29.2465 16.7741 29.0854C17.1794 28.7987 26.7061 21.92 26.6674 13.3334C26.6674 7.45202 21.8821 2.66669 16.0008 2.66669C10.1194 2.66669 5.3341 7.45202 5.3341 13.3267C5.29544 21.92 14.8221 28.7987 15.2274 29.0854ZM16.0008 5.33335C20.4128 5.33335 24.0008 8.92135 24.0008 13.34C24.0288 19.2574 18.1501 24.5707 16.0008 26.3134C13.8528 24.5694 7.97277 19.2547 8.00077 13.3334C8.00077 8.92135 11.5888 5.33335 16.0008 5.33335Z" fill="#FA821F"/>
</svg>
